<?xml version="1.0" encoding="utf-8"?>
<!-- Generator: Adobe Illustrator 23.0.6, SVG Export Plug-In . SVG Version: 6.00 Build 0)  -->
<svg version="1.1" id="Layer_1" xmlns="http://www.w3.org/2000/svg" xmlns:xlink="http://www.w3.org/1999/xlink" x="0px" y="0px"
	 viewBox="0 0 59 60" style="enable-background:new 0 0 59 60;" xml:space="preserve">
<style type="text/css">
	.st0{fill-rule:evenodd;clip-rule:evenodd;fill:#181616;}
</style>
<path class="st0" d="M29.5,0C13.2,0,0,13.8,0,30.8c0,13.6,8.5,25.1,20.2,29.2c1.5,0.3,2-0.7,2-1.5c0-0.7,0-2.7,0-5.2
	c-8.2,1.9-9.9-4.1-9.9-4.1c-1.3-3.6-3.3-4.5-3.3-4.5c-2.7-1.9,0.2-1.9,0.2-1.9c3,0.2,4.5,3.2,4.5,3.2c2.6,4.7,6.9,3.3,8.6,2.6
	c0.3-2,1-3.3,1.9-4.1c-6.6-0.8-13.4-3.4-13.4-15.2c0-3.4,1.1-6.1,3-8.3c-0.3-0.8-1.3-3.9,0.3-8.1c0,0,2.5-0.8,8.1,3.2
	c2.4-0.7,4.9-1,7.4-1c2.5,0,5,0.4,7.4,1c5.6-4,8.1-3.2,8.1-3.2c1.6,4.2,0.6,7.4,0.3,8.1c1.9,2.2,3,4.9,3,8.3
	c0,11.8-6.9,14.4-13.5,15.2c1.1,0.9,2,2.8,2,5.7c0,4.1,0,7.4,0,8.4c0,0.8,0.5,1.8,2,1.5C50.6,55.9,59,44.3,59,30.8
	C59,13.8,45.8,0,29.5,0z"/>
</svg>
