<?xml version="1.0" encoding="utf-8"?>
<!-- Generator: Adobe Illustrator 23.0.6, SVG Export Plug-In . SVG Version: 6.00 Build 0)  -->
<svg version="1.1" id="Layer_1" xmlns="http://www.w3.org/2000/svg" xmlns:xlink="http://www.w3.org/1999/xlink" x="0px" y="0px"
	 viewBox="0 0 750 1334" style="enable-background:new 0 0 750 1334;" xml:space="preserve">
<style type="text/css">
	.st0{fill:url(#SVGID_1_);stroke:#FFFFFF;stroke-width:3;stroke-miterlimit:10;}
	.st1{fill:url(#SVGID_2_);stroke:#FFFFFF;stroke-width:3;stroke-miterlimit:10;}
	.st2{fill:#4B8BBE;}
	.st3{clip-path:url(#SVGID_4_);fill:url(#SVGID_5_);stroke:url(#SVGID_6_);stroke-width:3;stroke-miterlimit:10;}
	.st4{fill:#262626;}
	.st5{fill:none;stroke:url(#SVGID_7_);stroke-width:3;stroke-miterlimit:10;}
	.st6{fill:none;stroke:url(#SVGID_8_);stroke-width:3;stroke-miterlimit:10;}
</style>
<linearGradient id="SVGID_1_" gradientUnits="userSpaceOnUse" x1="-583.9244" y1="1207.8286" x2="-583.7568" y2="1207.6622" gradientTransform="matrix(1849.2675 0 0 -1853.3917 1079953.625 2239259.75)">
	<stop  offset="0" style="stop-color:#387EB8"/>
	<stop  offset="1" style="stop-color:#366994"/>
</linearGradient>
<path class="st0" d="M317,698.6L317,698.6c0,15-12.2,27.2-27.2,27.2h0c-15,0-27.2-12.2-27.2-27.2v0c0-15,12.2-27.2,27.2-27.2h0
	C304.8,671.4,317,683.6,317,698.6z M373.4,623c-159.2,0-149.2,69-149.2,69l0.2,71.4h152v21.7H164.5c0,0-101.7-11.5-101.7,148.8
	c0,160.4,88.8,154.7,88.8,154.7h52.6v-74.4c0,0-2.9-88.7,87.3-88.7h150.9c0,0,84.6,1.4,84.6-81.8V706.2
	C526.9,706.2,539.8,623,373.4,623z"/>
<linearGradient id="SVGID_2_" gradientUnits="userSpaceOnUse" x1="-584.1697" y1="1208.0603" x2="-583.9896" y2="1207.8896" gradientTransform="matrix(1849.2671 0 0 -1853.3918 1080597.875 2239887.5)">
	<stop  offset="0" style="stop-color:#FFE052"/>
	<stop  offset="1" style="stop-color:#FFC331"/>
</linearGradient>
<path class="st1" d="M378.4,1246.8c159.3,0,149.3-69,149.3-69l-0.2-71.5h-152v-20.9H588c0,0,101.9,11.6,101.9-149.3
	c0-160.8-89-155.1-89-155.1h-53.1v74.1c0,0,2.9,88.9-87.5,88.9H309.7c0,0-84.6-1.4-84.6,81.8v137.6c0,0-12.9,83.3,153.5,83.3H378.4z
	 M462.5,1199.1c-15.2,0-27.6-12.2-27.6-27.3c0,0,0,0.1,0,0.1c0-15,12.2-27.2,27.2-27.2h0c15,0,27.2,12.2,27.2,27.2v0
	c0,15-12.1,27.1-27.1,27.1C462.2,1199.1,462.5,1199.1,462.5,1199.1L462.5,1199.1z"/>
<path class="st2" d="M-774.5,1091.4l46.9-2.4c46.9-2.4,140.8-7.3,232.9-30.7c92.1-23.7,182.5-65.1,277.2-61
	c94.7,4.4,193.8,55.3,287.7,50.3c93.8-4.9,182.5-65.4,272.4-112.1c89.9-46.7,181.1-79.4,273.3-102.7
	c92.1-23.7,185.1-37.3,231.6-44.7l46.5-7l26.3,278.4l-46.9,2.4c-46.9,2.4-140.8,7.3-234.6,12.1s-187.7,9.7-281.6,14.6
	s-187.7,9.7-281.6,14.6c-93.8,4.9-187.7,9.7-281.6,14.6c-93.8,4.9-187.7,9.7-281.6,14.6c-94.1,4.8-187.9,9.7-234.9,12.1l-46.9,2.4
	L-774.5,1091.4z"/>
<g>
	<defs>
		<path id="SVGID_3_" d="M-774.5,1091.5l46.9-2.4c46.9-2.4,140.8-7.3,232.9-30.7c92.1-23.7,182.5-65.1,277.2-61
			c94.7,4.4,193.8,55.3,287.7,50.3c93.8-4.9,182.5-65.4,272.4-112.1C432.6,889,523.8,856.3,616,832.9
			c92.1-23.7,185.1-37.3,231.6-44.7l46.5-7l26.3,278.4l-46.9,2.4c-46.9,2.4-140.8,7.3-234.6,12.1c-93.8,4.9-187.7,9.7-281.6,14.6
			s-187.7,9.7-281.6,14.6c-93.8,4.9-187.7,9.7-281.6,14.6c-93.8,4.9-187.7,9.7-281.6,14.6c-94.1,4.8-187.9,9.7-234.9,12.1l-46.9,2.4
			L-774.5,1091.5z"/>
	</defs>
	<clipPath id="SVGID_4_">
		<use xlink:href="#SVGID_3_"  style="overflow:visible;"/>
	</clipPath>
	
		<linearGradient id="SVGID_5_" gradientUnits="userSpaceOnUse" x1="-583.9244" y1="1207.8285" x2="-583.7568" y2="1207.6621" gradientTransform="matrix(1849.2675 0 0 -1853.3917 1079953.625 2239259.75)">
		<stop  offset="0" style="stop-color:#FFE052"/>
		<stop  offset="1" style="stop-color:#FFC331"/>
	</linearGradient>
	<linearGradient id="SVGID_6_" gradientUnits="userSpaceOnUse" x1="167.9492" y1="727.0484" x2="425.9787" y2="983.6444">
		<stop  offset="0" style="stop-color:#FFE052"/>
		<stop  offset="1" style="stop-color:#FFC331"/>
	</linearGradient>
	<path class="st3" d="M317,698.7L317,698.7c0,15-12.2,27.2-27.2,27.2h0c-15,0-27.2-12.2-27.2-27.2v0c0-15,12.2-27.2,27.2-27.2h0
		C304.8,671.5,317,683.7,317,698.7z M373.4,623.1c-159.2,0-149.2,69-149.2,69l0.2,71.4h152v21.7H164.5c0,0-101.7-11.5-101.7,148.8
		c0,160.4,88.8,154.7,88.8,154.7h52.6v-74.4c0,0-2.9-88.7,87.3-88.7h150.9c0,0,84.6,1.4,84.6-81.8V706.3
		C526.9,706.3,539.8,623.1,373.4,623.1z"/>
</g>
<sodipodi:namedview  bordercolor="#666666" borderopacity="1" gridtolerance="10" guidetolerance="10" id="namedview3727" objecttolerance="10" pagecolor="#ffffff" showgrid="false">
	</sodipodi:namedview>
<path class="st4" d="M-749.8,1103.2l46.5-2.3c46.5-2.3,139.4-7,230.6-29.4c91.2-22.7,180.7-62.5,274.5-58.5
	c93.8,4.3,192,53,284.9,48.3c93-4.7,180.7-62.7,269.8-107.5c89.1-44.7,179.5-76.1,270.6-98.5c91.2-22.7,183.3-35.8,229.4-42.9
	l46.1-6.8l26,266.9l-46.5,2.3c-46.5,2.3-139.4,7-232.4,11.7c-93,4.7-185.9,9.4-278.9,14c-93,4.7-185.9,9.4-278.9,14
	c-93,4.7-185.9,9.4-278.9,14c-93,4.7-185.9,9.4-278.9,14c-93,4.7-185.9,9.4-232.4,11.7l-46.5,2.3L-749.8,1103.2z"/>
<linearGradient id="SVGID_7_" gradientUnits="userSpaceOnUse" x1="61.2443" y1="855.9352" x2="528.6419" y2="855.9352">
	<stop  offset="0" style="stop-color:#387EB8"/>
	<stop  offset="1" style="stop-color:#366994"/>
</linearGradient>
<path class="st5" d="M373.4,623.1c-159.2,0-149.2,69-149.2,69l0.2,71.4h152v21.7H164.5c0,0-101.7-11.5-101.7,148.8
	c0,160.4,88.8,154.7,88.8,154.7h52.6v-74.4c0,0-2.9-88.7,87.3-88.7h150.9c0,0,84.6,1.4,84.6-81.8V706.3
	C526.9,706.3,539.8,623.1,373.4,623.1z M317,698.7L317,698.7c0,15-12.2,27.2-27.2,27.2h0c-15,0-27.2-12.2-27.2-27.2v0
	c0-15,12.2-27.2,27.2-27.2h0C304.8,671.5,317,683.7,317,698.7z"/>
<polygon class="st4" points="-844.1,1159.6 1047.5,1033.8 1064.8,1402.7 -826.8,1528.6 "/>
<linearGradient id="SVGID_8_" gradientUnits="userSpaceOnUse" x1="247.2003" y1="1215.756" x2="666.9553" y2="818.0631">
	<stop  offset="0" style="stop-color:#FFE052"/>
	<stop  offset="1" style="stop-color:#FFC331"/>
</linearGradient>
<path class="st6" d="M378.4,1246.8c159.3,0,149.3-69,149.3-69l-0.2-71.5h-152v-20.9H588c0,0,101.9,11.6,101.9-149.3
	c0-160.8-89-155.1-89-155.1h-53.1v74.1c0,0,2.9,88.9-87.5,88.9H309.7c0,0-84.6-1.4-84.6,81.8v137.6c0,0-12.9,83.3,153.5,83.3H378.4z
	 M462.5,1199.1c-15.2,0-27.6-12.2-27.6-27.3c0,0,0,0.1,0,0.1c0-15,12.2-27.2,27.2-27.2h0c15,0,27.2,12.2,27.2,27.2v0
	c0,15-12.1,27.1-27.1,27.1C462.2,1199.1,462.5,1199.1,462.5,1199.1L462.5,1199.1z"/>
</svg>
