<svg id="Layer_1" data-name="Layer 1" xmlns="http://www.w3.org/2000/svg" xmlns:xlink="http://www.w3.org/1999/xlink" viewBox="0 0 750 1334"><defs><style>.cls-1,.cls-8,.cls-9{fill:none;}.cls-2,.cls-3,.cls-6{stroke:#fff;}.cls-2,.cls-3,.cls-6,.cls-8,.cls-9{stroke-miterlimit:10;stroke-width:3px;}.cls-2{fill:url(#linear-gradient);}.cls-3{fill:url(#pyDev);}.cls-4{fill:#4b8bbe;}.cls-5{clip-path:url(#clip-path);}.cls-6{fill:url(#pyDev-2);}.cls-7{fill:#262626;}.cls-8{stroke:url(#linear-gradient-2);}.cls-9{stroke:url(#linear-gradient-3);}</style><linearGradient id="linear-gradient" x1="-583.92" y1="1207.83" x2="-583.76" y2="1207.66" gradientTransform="matrix(1849.27, 0, 0, -1853.39, 1079953.59, 2239259.84)" gradientUnits="userSpaceOnUse"><stop offset="0" stop-color="#387eb8"/><stop offset="1" stop-color="#366994"/></linearGradient><linearGradient id="pyDev" x1="-584.17" y1="1208.06" x2="-583.99" y2="1207.89" gradientTransform="matrix(1849.27, 0, 0, -1853.39, 1080597.88, 2239887.4)" gradientUnits="userSpaceOnUse"><stop offset="0" stop-color="#ffe052"/><stop offset="1" stop-color="#ffc331"/></linearGradient><clipPath id="clip-path"><path class="cls-1" d="M-774.49,1091.5l46.91-2.43c46.91-2.42,140.82-7.27,232.89-30.69,92.06-23.75,182.46-65.14,277.2-61,94.74,4.43,193.84,55.27,287.74,50.34s182.47-65.39,272.44-112.05S523.82,856.27,616,832.94C708,809.19,801.11,795.64,847.6,788.2l46.49-7,26.26,278.37L873.44,1062,638.8,1074.1q-140.74,7.28-281.56,14.64T75.69,1103.37Q-65,1110.65-205.87,1118t-281.55,14.63c-94.07,4.77-187.9,9.7-234.89,12.12l-46.91,2.43Z"/></clipPath><linearGradient id="pyDev-2" x1="-583.92" y1="1207.83" x2="-583.76" y2="1207.66" gradientTransform="matrix(1849.27, 0, 0, -1853.39, 1079953.59, 2239259.84)" xlink:href="#pyDev"/><linearGradient id="linear-gradient-2" x1="61.24" y1="855.94" x2="528.64" y2="855.94" gradientTransform="matrix(1, 0, 0, 1, 0, 0)" xlink:href="#linear-gradient"/><linearGradient id="linear-gradient-3" x1="247.2" y1="1215.76" x2="666.96" y2="818.06" gradientTransform="matrix(1, 0, 0, 1, 0, 0)" xlink:href="#pyDev"/></defs><title>mobile-header-bg</title><path class="cls-2" d="M317,698.61h0a27.16,27.16,0,0,1-27.15,27.15h0a27.2,27.2,0,0,1-27.21-27.2h0a27.15,27.15,0,0,1,27.16-27.15h0A27.2,27.2,0,0,1,317,698.61ZM373.43,623c-159.16,0-149.22,69-149.22,69l.17,71.35h152v21.74H164.47S62.75,773.6,62.75,934s88.78,154.7,88.78,154.7h52.61v-74.36s-2.86-88.7,87.28-88.7H442.28s84.64,1.36,84.64-81.83V706.24S539.77,623,373.43,623Z"/><path class="cls-3" d="M378.4,1246.81c159.29,0,149.35-69,149.35-69l-.18-71.48h-152v-20.91H588S689.89,1097,689.89,936.16s-89-155.12-89-155.12h-53.1v74.11s2.86,89-87.49,89H309.68S225,942.73,225,1026v137.59s-12.86,83.27,153.49,83.27Zm84.12-47.66a27.44,27.44,0,0,1-27.59-27.28v.1a27.18,27.18,0,0,1,27.17-27.18h0A27.18,27.18,0,0,1,489.28,1172v0a27.13,27.13,0,0,1-27.13,27.13Z"/><path class="cls-4" d="M-774.49,1091.41l46.92-2.42c46.91-2.43,140.81-7.28,232.88-30.69,92.07-23.75,182.46-65.14,277.21-61,94.74,4.43,193.83,55.28,287.74,50.34s182.46-65.39,272.44-112S523.82,856.18,616,832.85C708,809.1,801.11,795.56,847.61,788.11l46.49-7,26.26,278.38-46.91,2.42L638.8,1074q-140.73,7.27-281.55,14.63T75.7,1103.28q-140.74,7.28-281.56,14.64t-281.55,14.63c-94.08,4.77-187.9,9.7-234.9,12.13l-46.91,2.42Z"/><g class="cls-5"><path class="cls-6" d="M317,698.69h0a27.16,27.16,0,0,1-27.15,27.16h0a27.2,27.2,0,0,1-27.2-27.2h0a27.15,27.15,0,0,1,27.15-27.16h0A27.2,27.2,0,0,1,317,698.69Zm56.41-75.61c-159.17,0-149.23,69-149.23,69l.18,71.36h152v21.74H164.46S62.74,773.68,62.74,934.07s88.78,154.7,88.78,154.7h52.61V1014.4s-2.85-88.7,87.29-88.7H442.27s84.64,1.37,84.64-81.82V706.33S539.77,623.08,373.43,623.08Z"/></g><path class="cls-7" d="M-749.82,1103.2l46.49-2.34c46.49-2.34,139.4-7,230.63-29.43,91.23-22.75,180.7-62.47,274.53-58.54,93.82,4.27,192,53,284.9,48.34s180.7-62.72,269.76-107.46,179.45-76.09,270.6-98.5c91.23-22.75,183.3-35.79,229.37-42.9l46.08-6.78,26,266.93-46.5,2.34-232.38,11.7q-139.49,7-278.88,14t-278.88,14q-139.48,7-278.88,14t-278.88,14l-232.38,11.71-46.49,2.34Z"/><path class="cls-8" d="M373.43,623.08c-159.17,0-149.23,69-149.23,69l.18,71.36h152v21.74H164.46S62.74,773.68,62.74,934.07s88.78,154.7,88.78,154.7h52.61V1014.4s-2.85-88.7,87.29-88.7H442.27s84.64,1.37,84.64-81.82V706.33S539.77,623.08,373.43,623.08ZM317,698.69h0a27.16,27.16,0,0,1-27.15,27.16h0a27.2,27.2,0,0,1-27.2-27.2h0a27.15,27.15,0,0,1,27.15-27.16h0A27.2,27.2,0,0,1,317,698.69Z"/><polygon class="cls-7" points="-844.15 1159.65 1047.46 1033.8 1064.85 1402.74 -826.84 1528.59 -844.15 1159.65"/><path class="cls-9" d="M378.4,1246.81c159.29,0,149.35-69,149.35-69l-.18-71.48h-152v-20.91H588S689.89,1097,689.89,936.16s-89-155.12-89-155.12h-53.1v74.11s2.86,89-87.49,89H309.68S225,942.73,225,1026v137.59s-12.86,83.27,153.49,83.27Zm84.12-47.66a27.44,27.44,0,0,1-27.59-27.28v.1a27.18,27.18,0,0,1,27.17-27.18h0A27.18,27.18,0,0,1,489.28,1172v0a27.13,27.13,0,0,1-27.13,27.13Z"/></svg>