<?xml version="1.0" encoding="utf-8"?>
<!-- Generator: Adobe Illustrator 23.0.6, SVG Export Plug-In . SVG Version: 6.00 Build 0)  -->
<svg version="1.1"
	 id="svg3725" xmlns:cc="http://creativecommons.org/ns#" xmlns:dc="http://purl.org/dc/elements/1.1/" xmlns:inkscape="http://www.inkscape.org/namespaces/inkscape" xmlns:rdf="http://www.w3.org/1999/02/22-rdf-syntax-ns#" xmlns:sodipodi="http://sodipodi.sourceforge.net/DTD/sodipodi-0.dtd" xmlns:svg="http://www.w3.org/2000/svg"
	 xmlns="http://www.w3.org/2000/svg" xmlns:xlink="http://www.w3.org/1999/xlink" x="0px" y="0px" viewBox="0 0 1920 1080"
	 style="enable-background:new 0 0 1920 1080;" xml:space="preserve">
<style type="text/css">
	.st0{fill:#262626;}
</style>
<g>
	<polygon class="st0" points="-116.2,-448.9 2150.5,-406 2133.6,35.4 -133.2,-7.5 	"/>
	<path class="st0" d="M1953.2,60.1l-55.6-2c-55.6-2-166.8-5.8-277.8,11.6c-111,17.8-221.7,56-333.1,41.7
		c-111.4-14.6-223.4-82.7-334.5-86.6c-111.3-3.9-221.7,56.3-332.4,100.5s-221.6,72.4-332.5,89.8c-111,17.8-222.1,24-277.7,27.7
		l-55.6,3.4l-3.8-320.7l55.6,2c55.6,2,166.8,5.8,278.1,9.7S506.5-55,617.8-51c111.3,3.9,222.4,7.8,333.7,11.8
		c111.3,4,222.4,7.8,333.7,11.8c111.3,3.9,222.4,7.8,333.7,11.8s222.4,7.8,278.1,9.7l55.6,2L1953.2,60.1z"/>
</g>
</svg>
