<?xml version="1.0" encoding="utf-8"?>
<!-- Generator: Adobe Illustrator 23.0.6, SVG Export Plug-In . SVG Version: 6.00 Build 0)  -->
<svg version="1.1" xmlns="http://www.w3.org/2000/svg" xmlns:xlink="http://www.w3.org/1999/xlink" x="0px" y="0px"
	 viewBox="0 0 1305 1080" style="enable-background:new 0 0 1305 1080;" xml:space="preserve">
<style type="text/css">
	.st0{fill:url(#SVGID_1_);stroke:#FFFFFF;stroke-width:3;stroke-miterlimit:10;}
	.st1{fill:url(#SVGID_2_);stroke:url(#SVGID_3_);stroke-width:3;stroke-miterlimit:10;}
	.st2{fill:#4B8BBE;}
	.st3{clip-path:url(#SVGID_5_);fill:url(#SVGID_6_);stroke:#FFFFFF;stroke-width:3;stroke-miterlimit:10;}
	.st4{fill:#262626;}
	.st5{fill:none;stroke:url(#SVGID_7_);stroke-width:3;stroke-miterlimit:10;}
	.st6{fill:none;stroke:url(#SVGID_8_);stroke-width:3;stroke-miterlimit:10;}
</style>
<g id="Layer_1">
	
		<linearGradient id="SVGID_1_" gradientUnits="userSpaceOnUse" x1="0.9042" y1="1080.8844" x2="1.0751" y2="1080.7148" gradientTransform="matrix(1849.2675 0 0 -1853.3917 -1282.8516 2003752.125)">
		<stop  offset="0" style="stop-color:#387EB8"/>
		<stop  offset="1" style="stop-color:#366994"/>
	</linearGradient>
	<path class="st0" d="M588.9,468.5L588.9,468.5c0,15.3-12.4,27.7-27.7,27.7h0c-15.3,0-27.7-12.4-27.7-27.7v0
		c0-15.3,12.4-27.7,27.7-27.7l0,0C576.5,440.8,588.9,453.2,588.9,468.5z M646.4,391.5c-162.2,0-152,70.3-152,70.3l0.2,72.7h154.9
		v22.2H433.5c0,0-103.6-11.8-103.6,151.6c0,163.4,90.4,157.6,90.4,157.6h53.6v-75.8c0,0-2.9-90.4,88.9-90.4h153.7
		c0,0,86.2,1.4,86.2-83.4V476.3C802.8,476.3,815.8,391.5,646.4,391.5z"/>
	
		<linearGradient id="SVGID_2_" gradientUnits="userSpaceOnUse" x1="0.661" y1="1081.1141" x2="0.8445" y2="1080.9403" gradientTransform="matrix(1849.2671 0 0 -1853.3918 -638.3882 2004379.625)">
		<stop  offset="0" style="stop-color:#FFE052"/>
		<stop  offset="1" style="stop-color:#FFC331"/>
	</linearGradient>
	<linearGradient id="SVGID_3_" gradientUnits="userSpaceOnUse" x1="493.4534" y1="789.7383" x2="970.2874" y2="789.7383">
		<stop  offset="0" style="stop-color:#FFE052"/>
		<stop  offset="1" style="stop-color:#FFC331"/>
	</linearGradient>
	<path class="st1" d="M651.4,1027c162.3,0,152.2-70.3,152.2-70.3l-0.2-72.8H648.5v-21.3h216.4c0,0,103.9,11.8,103.9-152.1
		c0-163.9-90.6-158-90.6-158H824V628c0,0,2.9,90.6-89.1,90.6H581.4c0,0-86.2-1.4-86.2,83.4v140.2c0,0-13.1,84.8,156.4,84.8H651.4z
		 M737.1,978.5c-15.5,0-28.1-12.4-28.1-27.8c0,0,0,0.1,0,0.1c0-15.3,12.4-27.7,27.7-27.7h0c15.3,0,27.7,12.4,27.7,27.7v0
		c0,15.3-12.4,27.6-27.6,27.6C736.8,978.5,737.2,978.5,737.1,978.5L737.1,978.5z"/>
	<path class="st2" d="M-523.1,868.7l47.8-2.5c47.8-2.5,143.5-7.4,237.3-31.3c93.8-24.2,185.9-66.4,282.4-62.2
		c96.5,4.5,197.5,56.3,293.2,51.3c95.6-4.9,185.9-66.6,277.6-114.2c91.6-47.5,184.5-80.9,278.4-104.6c93.8-24.2,188.6-38,236-45.6
		l47.4-7.2l26.8,283.6l-47.8,2.5c-47.8,2.5-143.5,7.4-239.1,12.4s-191.3,9.9-286.9,14.9s-191.3,9.9-286.9,14.9
		c-95.6,4.9-191.3,9.9-286.9,14.9c-95.6,4.9-191.3,9.9-286.9,14.9c-95.8,4.9-191.4,9.9-239.3,12.4l-47.8,2.5L-523.1,868.7z"/>
	<g>
		<defs>
			<path id="SVGID_4_" d="M-523.2,868.8l47.8-2.5c47.8-2.5,143.5-7.4,237.3-31.3c93.8-24.2,185.9-66.4,282.4-62.2
				c96.5,4.5,197.5,56.3,293.2,51.3c95.6-4.9,185.9-66.6,277.6-114.2c91.6-47.5,184.5-80.9,278.4-104.6c93.8-24.2,188.6-38,236-45.6
				l47.4-7.2l26.8,283.6l-47.8,2.5c-47.8,2.5-143.5,7.4-239.1,12.4c-95.6,4.9-191.3,9.9-286.9,14.9c-95.6,5-191.3,9.9-286.9,14.9
				c-95.6,4.9-191.3,9.9-286.9,14.9c-95.6,4.9-191.3,9.9-286.9,14.9c-95.8,4.9-191.4,9.9-239.3,12.4l-47.8,2.5L-523.2,868.8z"/>
		</defs>
		<clipPath id="SVGID_5_">
			<use xlink:href="#SVGID_4_"  style="overflow:visible;"/>
		</clipPath>
		
			<linearGradient id="SVGID_6_" gradientUnits="userSpaceOnUse" x1="0.9042" y1="1080.8844" x2="1.0751" y2="1080.7148" gradientTransform="matrix(1849.2675 0 0 -1853.3917 -1282.8516 2003752.125)">
			<stop  offset="0" style="stop-color:#FFE052"/>
			<stop  offset="1" style="stop-color:#FFC331"/>
		</linearGradient>
		<path class="st3" d="M588.9,468.6L588.9,468.6c0,15.3-12.4,27.7-27.7,27.7h0c-15.3,0-27.7-12.4-27.7-27.7v0
			c0-15.3,12.4-27.7,27.7-27.7h0C576.5,440.9,588.9,453.3,588.9,468.6z M646.4,391.5c-162.2,0-152,70.3-152,70.3l0.2,72.7h154.9
			v22.2H433.5c0,0-103.6-11.8-103.6,151.6c0,163.4,90.4,157.6,90.4,157.6h53.6v-75.8c0,0-2.9-90.4,88.9-90.4h153.7
			c0,0,86.2,1.4,86.2-83.4V476.4C802.7,476.4,815.8,391.5,646.4,391.5z"/>
	</g>
	<path class="st4" d="M-498,880.7l47.4-2.4c47.4-2.4,142-7.2,235-30c92.9-23.2,184.1-63.6,279.7-59.6c95.6,4.3,195.6,54,290.3,49.2
		c94.7-4.8,184.1-63.9,274.8-109.5c90.7-45.6,182.8-77.5,275.7-100.4c92.9-23.2,186.7-36.5,233.7-43.7l46.9-6.9l26.5,271.9
		l-47.4,2.4c-47.4,2.4-142,7.2-236.8,11.9s-189.4,9.5-284.1,14.2c-94.7,4.8-189.4,9.5-284.1,14.2c-94.7,4.8-189.4,9.5-284.1,14.2
		c-94.7,4.8-189.4,9.5-284.1,14.2c-94.7,4.8-189.4,9.5-236.8,11.9l-47.4,2.4L-498,880.7z"/>
	<linearGradient id="SVGID_7_" gradientUnits="userSpaceOnUse" x1="328.3405" y1="628.7883" x2="804.4789" y2="628.7883">
		<stop  offset="0" style="stop-color:#387EB8"/>
		<stop  offset="1" style="stop-color:#366994"/>
	</linearGradient>
	<path class="st5" d="M646.4,391.5c-162.2,0-152,70.3-152,70.3l0.2,72.7h154.9v22.2H433.5c0,0-103.6-11.8-103.6,151.6
		c0,163.4,90.4,157.6,90.4,157.6h53.6v-75.8c0,0-2.9-90.4,88.9-90.4h153.7c0,0,86.2,1.4,86.2-83.4V476.4
		C802.7,476.4,815.8,391.5,646.4,391.5z M588.9,468.6L588.9,468.6c0,15.3-12.4,27.7-27.7,27.7h0c-15.3,0-27.7-12.4-27.7-27.7v0
		c0-15.3,12.4-27.7,27.7-27.7h0C576.5,440.9,588.9,453.3,588.9,468.6z"/>
	<polygon class="st4" points="-594.1,938.2 1333.1,810 1350.8,1185.9 -576.5,1314.1 	"/>
	<linearGradient id="SVGID_8_" gradientUnits="userSpaceOnUse" x1="517.7888" y1="995.3623" x2="945.4034" y2="590.2228">
		<stop  offset="0" style="stop-color:#FFE052"/>
		<stop  offset="1" style="stop-color:#FFC331"/>
	</linearGradient>
	<path class="st6" d="M651.4,1027c162.3,0,152.2-70.3,152.2-70.3l-0.2-72.8H648.5v-21.3h216.4c0,0,103.9,11.8,103.9-152.1
		c0-163.9-90.6-158-90.6-158H824V628c0,0,2.9,90.6-89.1,90.6H581.4c0,0-86.2-1.4-86.2,83.4v140.2c0,0-13.1,84.8,156.4,84.8H651.4z
		 M737.1,978.5c-15.5,0-28.1-12.4-28.1-27.8c0,0,0,0.1,0,0.1c0-15.3,12.4-27.7,27.7-27.7h0c15.3,0,27.7,12.4,27.7,27.7v0
		c0,15.3-12.4,27.6-27.6,27.6C736.8,978.5,737.2,978.5,737.1,978.5L737.1,978.5z"/>
	<path class="st2" d="M2906.1,444.3l-46.6,10.8c-46.7,10.8-140,32.3-233.4,54.1c-93.3,21.5-186.6,43.1-279.9,64.7
		c-93.3,21.5-186.6,43.1-279.9,64.7c-93.3,21.5-186.6,43.2-279.9,64.7s-186.6,43.1-279.9,64.7c-93.2,21.6-186.6,43.2-233.2,54
		l-46.6,10.8l-52.5-280l47.5-6.2c47.6-5.8,142.6-18.6,239.4-21.2c96.8-3,195.3,3.4,296.5,23.8c101.2,20.4,205,54.8,298.3,33.2
		c93.4-21.5,176.1-99.2,267.7-130.1c91.6-30.6,191.8-15.5,288.6-18.1c96.7-2.9,190.1-24.5,236.7-35.3l46.6-10.8L2906.1,444.3z"/>
	<path class="st4" d="M2884.7,460.3l-46.2,10.8c-46.2,10.8-138.5,32.3-230.9,53.8c-92.4,21.6-184.7,43.1-277,64.6
		c-92.4,21.6-184.7,43.1-277,64.6c-92.4,21.6-184.7,43.1-277,64.6c-92.4,21.6-184.7,43.1-277,64.6c-92.4,21.5-184.7,43-230.9,53.8
		l-46.2,10.8l-49.5-268.7l47-6.3c47.1-6,141-19.1,236.7-22.4c95.6-3.6,192.9,1.7,292.7,20.5c99.8,18.8,202,51,294.4,29.5
		c92.3-21.5,174.8-96.8,265.4-127.3c90.8-30.2,189.6-16.4,285.3-19.8c95.6-3.7,187.9-25.2,234.1-35.9l46.2-10.8L2884.7,460.3z"/>
	<rect x="1147.5" y="687.8" class="st4" width="668.5" height="478.6"/>
</g>
<g id="Layer_2">
</g>
</svg>
