<?xml version="1.0" encoding="utf-8"?>
<!-- Generator: Adobe Illustrator 23.0.6, SVG Export Plug-In . SVG Version: 6.00 Build 0)  -->
<svg version="1.1"
	 id="svg3725" xmlns:cc="http://creativecommons.org/ns#" xmlns:dc="http://purl.org/dc/elements/1.1/" xmlns:inkscape="http://www.inkscape.org/namespaces/inkscape" xmlns:rdf="http://www.w3.org/1999/02/22-rdf-syntax-ns#" xmlns:sodipodi="http://sodipodi.sourceforge.net/DTD/sodipodi-0.dtd" xmlns:svg="http://www.w3.org/2000/svg"
	 xmlns="http://www.w3.org/2000/svg" xmlns:xlink="http://www.w3.org/1999/xlink" x="0px" y="0px" viewBox="0 0 1920 250"
	 style="enable-background:new 0 0 1920 250;" xml:space="preserve">
<style type="text/css">
	.st0{fill:#306998;}
</style>
<sodipodi:namedview  bordercolor="#666666" borderopacity="1" gridtolerance="10" guidetolerance="10" id="namedview3727" inkscape:current-layer="svg3725" inkscape:cx="1049.8646" inkscape:cy="-109.97354" inkscape:pageopacity="0" inkscape:pageshadow="2" inkscape:window-height="1017" inkscape:window-maximized="1" inkscape:window-width="1920" inkscape:window-x="-8" inkscape:window-y="-8" inkscape:zoom="0.61284722" objecttolerance="10" pagecolor="#ffffff" showgrid="false">
	</sodipodi:namedview>
<g>
	<polygon class="st0" points="-111,305.2 2152.1,169.9 2159.4,450.6 -103.7,586 	"/>
	<path class="st0" d="M1944.2,177.8l-55.6,3.1c-55.6,3.1-166.7,9.4-277,7.8c-110.3-1.8-219.7-11-331.2-1
		c-111.5,10.2-225.2,40.1-336.3,46.4c-111.1,6.3-219.7-11.1-328.9-22.6c-109.2-11.5-219.1-17.1-329.3-18.7
		c-110.3-1.8-221,0.8-276.3,1.8l-55.3,1.2l-12.6,118.3l55.6-3.1c55.6-3.1,166.7-9.4,277.8-15.7c111.1-6.3,222.2-12.5,333.3-18.8
		c111.1-6.3,222.2-12.5,333.3-18.8c111.1-6.3,222.2-12.5,333.3-18.8c111.1-6.3,222.2-12.5,333.3-18.8
		c111.1-6.3,222.2-12.5,277.8-15.7l55.6-3.1L1944.2,177.8z"/>
</g>
</svg>
