<?xml version="1.0" encoding="utf-8"?>
<!-- Generator: Adobe Illustrator 23.0.6, SVG Export Plug-In . SVG Version: 6.00 Build 0)  -->
<svg version="1.1" id="Layer_1" xmlns="http://www.w3.org/2000/svg" xmlns:xlink="http://www.w3.org/1999/xlink" x="0px" y="0px"
	 viewBox="0 0 1920 1080" style="enable-background:new 0 0 1920 1080;" xml:space="preserve">
<style type="text/css">
	.st0{fill:url(#SVGID_1_);stroke:#FFFFFF;stroke-width:3;stroke-miterlimit:10;}
	.st1{fill:url(#SVGID_2_);stroke:#FFFFFF;stroke-width:3;stroke-miterlimit:10;}
	.st2{fill:#4B8BBE;}
	.st3{clip-path:url(#SVGID_4_);fill:url(#SVGID_5_);stroke:#FFFFFF;stroke-width:3;stroke-miterlimit:10;}
	.st4{fill:#262626;}
	.st5{fill:none;stroke:url(#SVGID_6_);stroke-width:3;stroke-miterlimit:10;}
	.st6{fill:none;stroke:url(#SVGID_7_);stroke-width:3;stroke-miterlimit:10;}
</style>
<linearGradient id="SVGID_1_" gradientUnits="userSpaceOnUse" x1="1.0568" y1="1080.9218" x2="1.2588" y2="1080.7213" gradientTransform="matrix(1849.2675 0 0 -1853.3917 -1282.8516 2003752.125)">
	<stop  offset="0" style="stop-color:#387EB8"/>
	<stop  offset="1" style="stop-color:#366994"/>
</linearGradient>
<path class="st0" d="M907.4,402.6L907.4,402.6c0,18.1-14.6,32.7-32.7,32.7h0c-18.1,0-32.8-14.7-32.8-32.8v0
	c0-18.1,14.6-32.7,32.7-32.7h0C892.7,369.9,907.4,384.5,907.4,402.6z M975.3,311.5c-191.8,0-179.8,83.2-179.8,83.2l0.2,86h183.2
	v26.2H723.6c0,0-122.5-13.9-122.5,179.3c0,193.2,107,186.4,107,186.4h63.4V783c0,0-3.4-106.9,105.2-106.9h181.8
	c0,0,102,1.6,102-98.6V411.8C1160.3,411.8,1175.8,311.5,975.3,311.5z"/>
<linearGradient id="SVGID_2_" gradientUnits="userSpaceOnUse" x1="0.8327" y1="1081.1317" x2="1.0497" y2="1080.926" gradientTransform="matrix(1849.2671 0 0 -1853.3918 -638.3882 2004379.625)">
	<stop  offset="0" style="stop-color:#FFE052"/>
	<stop  offset="1" style="stop-color:#FFC331"/>
</linearGradient>
<path class="st1" d="M981.3,1063.1c191.9,0,179.9-83.1,179.9-83.1l-0.2-86.1H977.9v-25.2h255.9c0,0,122.8,13.9,122.8-179.8
	c0-193.8-107.2-186.9-107.2-186.9h-64v89.3c0,0,3.4,107.2-105.4,107.2H898.5c0,0-102-1.6-102,98.6v165.8c0,0-15.5,100.3,184.9,100.3
	H981.3z M1082.7,1005.7c-18.3,0-33.2-14.7-33.2-32.9c0,0,0,0.1,0,0.1c0-18.1,14.7-32.7,32.7-32.7h0c18.1,0,32.7,14.7,32.7,32.7v0.1
	c0,18.1-14.6,32.7-32.7,32.7C1082.2,1005.7,1082.7,1005.7,1082.7,1005.7L1082.7,1005.7z"/>
<path class="st2" d="M-407.7,875.9l56.5-2.9c56.5-2.9,169.7-8.8,280.6-37c110.9-28.6,219.8-78.5,334-73.5
	c114.1,5.3,233.5,66.6,346.7,60.7c113-5.8,219.8-78.8,328.2-135c108.3-56.2,218.2-95.6,329.2-123.7
	c110.9-28.6,223.1-44.9,279.1-53.9l56-8.5l31.6,335.4l-56.5,2.9c-56.5,2.9-169.7,8.8-282.7,14.6c-113,5.8-226.2,11.7-339.2,17.6
	s-226.2,11.7-339.2,17.6c-113,5.8-226.2,11.7-339.2,17.6c-113,5.8-226.2,11.7-339.2,17.6c-113.3,5.7-226.4,11.7-283,14.6l-56.5,2.9
	L-407.7,875.9z"/>
<g>
	<defs>
		<path id="SVGID_3_" d="M-407.7,876l56.5-2.9c56.5-2.9,169.7-8.8,280.6-37c110.9-28.6,219.8-78.5,334-73.5
			c114.1,5.3,233.5,66.6,346.7,60.7c113-5.8,219.8-78.8,328.2-135c108.3-56.2,218.2-95.6,329.2-123.7
			c110.9-28.6,223.1-44.9,279.1-53.9l56-8.5l31.6,335.4l-56.5,2.9c-56.5,2.9-169.7,8.8-282.7,14.6c-113,5.8-226.2,11.7-339.2,17.6
			s-226.2,11.7-339.2,17.6c-113,5.8-226.2,11.7-339.2,17.6c-113,5.8-226.2,11.7-339.2,17.6c-113.3,5.7-226.4,11.7-283,14.6
			l-56.5,2.9L-407.7,876z"/>
	</defs>
	<clipPath id="SVGID_4_">
		<use xlink:href="#SVGID_3_"  style="overflow:visible;"/>
	</clipPath>
	
		<linearGradient id="SVGID_5_" gradientUnits="userSpaceOnUse" x1="1.0568" y1="1080.9218" x2="1.2588" y2="1080.7213" gradientTransform="matrix(1849.2675 0 0 -1853.3917 -1282.8516 2003752.125)">
		<stop  offset="0" style="stop-color:#FFE052"/>
		<stop  offset="1" style="stop-color:#FFC331"/>
	</linearGradient>
	<path class="st3" d="M907.4,402.7L907.4,402.7c0,18.1-14.6,32.7-32.7,32.7h0c-18.1,0-32.8-14.7-32.8-32.8v0
		c0-18.1,14.6-32.7,32.7-32.7h0C892.7,370,907.4,384.6,907.4,402.7z M975.3,311.6c-191.8,0-179.8,83.2-179.8,83.2l0.2,86h183.2V507
		H723.6c0,0-122.5-13.9-122.5,179.3c0,193.2,107,186.4,107,186.4h63.4v-89.6c0,0-3.4-106.9,105.2-106.9h181.8c0,0,102,1.6,102-98.6
		V411.9C1160.3,411.9,1175.7,311.6,975.3,311.6z"/>
</g>
<path class="st4" d="M-378,890.1l56-2.8c56-2.8,167.9-8.5,277.9-35.5c109.9-27.4,217.7-75.3,330.8-70.5
	c113,5.1,231.3,63.9,343.3,58.2c112-5.6,217.7-75.6,325-129.5c107.3-53.9,216.2-91.7,326-118.7c109.9-27.4,220.8-43.1,276.4-51.7
	l55.5-8.2l31.3,321.6l-56,2.8c-56,2.8-167.9,8.5-280,14.1c-112,5.6-224,11.3-336,16.8c-112,5.6-224,11.3-336,16.8
	c-112,5.6-224,11.3-336,16.8c-112,5.6-224,11.3-336,16.8c-112,5.6-224,11.3-280,14.1l-56,2.8L-378,890.1z"/>
<linearGradient id="SVGID_6_" gradientUnits="userSpaceOnUse" x1="599.5204" y1="592.1888" x2="1162.0355" y2="592.1888">
	<stop  offset="0" style="stop-color:#387EB8"/>
	<stop  offset="1" style="stop-color:#366994"/>
</linearGradient>
<path class="st5" d="M975.3,311.6c-191.8,0-179.8,83.2-179.8,83.2l0.2,86h183.2V507H723.6c0,0-122.5-13.9-122.5,179.3
	c0,193.2,107,186.4,107,186.4h63.4v-89.6c0,0-3.4-106.9,105.2-106.9h181.8c0,0,102,1.6,102-98.6V411.9
	C1160.3,411.9,1175.7,311.6,975.3,311.6z M907.4,402.7L907.4,402.7c0,18.1-14.6,32.7-32.7,32.7h0c-18.1,0-32.8-14.7-32.8-32.8v0
	c0-18.1,14.6-32.7,32.7-32.7h0C892.7,370,907.4,384.6,907.4,402.7z"/>
<polygon class="st4" points="-491.6,958.1 1787.4,806.5 1808.4,1251 -470.8,1402.6 "/>
<linearGradient id="SVGID_7_" gradientUnits="userSpaceOnUse" x1="823.4795" y1="1025.4966" x2="1328.7623" y2="546.771">
	<stop  offset="0" style="stop-color:#FFE052"/>
	<stop  offset="1" style="stop-color:#FFC331"/>
</linearGradient>
<path class="st6" d="M981.3,1063.1c191.9,0,179.9-83.1,179.9-83.1l-0.2-86.1H977.9v-25.2h255.9c0,0,122.8,13.9,122.8-179.8
	c0-193.8-107.2-186.9-107.2-186.9h-64v89.3c0,0,3.4,107.2-105.4,107.2H898.5c0,0-102-1.6-102,98.6v165.8c0,0-15.5,100.3,184.9,100.3
	H981.3z M1082.7,1005.7c-18.3,0-33.2-14.7-33.2-32.9c0,0,0,0.1,0,0.1c0-18.1,14.7-32.7,32.7-32.7h0c18.1,0,32.7,14.7,32.7,32.7v0.1
	c0,18.1-14.6,32.7-32.7,32.7C1082.2,1005.7,1082.7,1005.7,1082.7,1005.7L1082.7,1005.7z"/>
<path class="st2" d="M3641.9,320.7l-54.8,14.2c-54.9,14.2-164.5,42.6-274.3,71.2c-109.6,28.3-219.3,56.8-328.8,85.2
	c-109.6,28.3-219.3,56.8-328.8,85.2c-109.6,28.3-219.2,56.9-328.8,85.2s-219.3,56.8-328.8,85.2c-109.6,28.4-219.2,56.9-274,71.1
	l-54.8,14.2L1598,502.7l56-8.8c56.1-8.3,168-26.4,282.4-32.5c114.3-6.6,231-2.1,351.2,19c120.3,21,244.1,58.5,353.6,30.1
	c109.7-28.4,205.1-122.7,312.4-162.1c107.4-39,226.2-24.2,340.6-30.3c114.3-6.5,223.9-34.9,278.7-49.1l54.8-14.2L3641.9,320.7z"/>
<path class="st4" d="M3617.1,340.3l-54.3,14.2c-54.3,14.2-162.7,42.4-271.3,70.7c-108.5,28.4-217,56.7-325.5,85
	c-108.5,28.4-217,56.7-325.5,85c-108.5,28.4-217,56.7-325.5,85c-108.5,28.4-217,56.7-325.5,85c-108.5,28.3-217,56.6-271.3,70.7
	l-54.3,14.2l-66.8-316.1l55.4-8.9c55.5-8.5,166-26.9,279.1-33.8c112.9-7.3,228.1-4,346.6,15.2c118.5,19.1,240.4,54,348.9,25.7
	c108.4-28.3,203.6-119.9,309.9-158.8c106.4-38.5,223.6-25.3,336.7-32.2c112.9-7.3,221.4-35.6,275.7-49.7l54.3-14.2L3617.1,340.3z"/>
</svg>
