<?xml version="1.0" encoding="utf-8"?>
<!-- Generator: Adobe Illustrator 23.0.6, SVG Export Plug-In . SVG Version: 6.00 Build 0)  -->
<svg version="1.1" id="Layer_1" xmlns="http://www.w3.org/2000/svg" xmlns:xlink="http://www.w3.org/1999/xlink" x="0px" y="0px"
	 viewBox="0 0 1920 1080" style="enable-background:new 0 0 1920 1080;" xml:space="preserve">
<style type="text/css">
	.st0{fill:url(#SVGID_1_);stroke:url(#SVGID_2_);stroke-width:3;stroke-miterlimit:10;}
	.st1{fill:#295C89;stroke:#FFFFFF;stroke-width:3;stroke-miterlimit:10;}
	.st2{fill:#2A5066;}
	.st3{clip-path:url(#SVGID_4_);fill:#FFC331;stroke:url(#SVGID_5_);stroke-miterlimit:10;}
	.st4{fill:#262626;}
	.st5{fill:none;stroke:#295C89;stroke-width:3;stroke-miterlimit:10;}
	.st6{fill:none;stroke:url(#SVGID_6_);stroke-width:3;stroke-miterlimit:10;}
</style>
<linearGradient id="SVGID_1_" gradientUnits="userSpaceOnUse" x1="1137.1221" y1="684.4848" x2="1697.5002" y2="684.4848">
	<stop  offset="0" style="stop-color:#FFE052"/>
	<stop  offset="0" style="stop-color:#FFC331"/>
</linearGradient>
<linearGradient id="SVGID_2_" gradientUnits="userSpaceOnUse" x1="1164.3267" y1="152.5049" x2="1669.6589" y2="631.2773" gradientTransform="matrix(1 0 0 -1 0 1080)">
	<stop  offset="0" style="stop-color:#FFE052"/>
	<stop  offset="1" style="stop-color:#FFC331"/>
</linearGradient>
<path class="st0" d="M1322.3,965c191.9,0,179.9-83.1,179.9-83.1l-0.2-86.1h-183.2v-25.2h255.9c0,0,122.8,13.9,122.8-179.8
	c0-193.8-107.2-186.9-107.2-186.9h-64v89.3c0,0,3.4,107.2-105.4,107.2h-181.5c0,0-102-1.6-102,98.6v165.8
	c0,0-15.5,100.3,184.9,100.3h0V965z M1423.6,907.6c-18.3,0-33.2-14.7-33.2-32.9v0.1c0-18.1,14.7-32.7,32.7-32.7l0,0
	c18.1,0,32.7,14.7,32.7,32.7v0.1c0,18.1-14.6,32.7-32.7,32.7C1423.2,907.6,1423.6,907.6,1423.6,907.6L1423.6,907.6z"/>
<g id="background">
</g>
<path class="st1" d="M1248.3,304.5L1248.3,304.5c0,18.1-14.6,32.7-32.7,32.7l0,0c-18.1,0-32.8-14.7-32.8-32.8l0,0
	c0-18.1,14.6-32.7,32.7-32.7l0,0C1233.7,271.8,1248.3,286.4,1248.3,304.5z M1316.3,213.4c-191.8,0-179.8,83.2-179.8,83.2l0.2,86
	h183.2v26.2h-255.3c0,0-122.5-13.9-122.5,179.3s107,186.4,107,186.4h63.4v-89.6c0,0-3.4-106.9,105.2-106.9h181.8
	c0,0,102,1.6,102-98.6V313.7C1501.2,313.7,1516.7,213.4,1316.3,213.4z"/>
<path class="st2" d="M-66.7,777.8l56.5-2.9c56.5-2.9,169.7-8.8,280.6-37c110.9-28.6,219.8-78.5,334-73.5
	c114.1,5.3,233.5,66.6,346.7,60.7c113-5.8,219.8-78.8,328.2-135c108.3-56.2,218.2-95.6,329.2-123.7
	c110.9-28.6,223.1-44.9,279.1-53.9l56-8.5l31.6,335.4l-56.5,2.9c-56.5,2.9-169.7,8.8-282.7,14.6s-226.2,11.7-339.2,17.6
	s-226.2,11.7-339.2,17.6c-113,5.8-226.2,11.7-339.2,17.6c-113,5.8-226.2,11.7-339.2,17.6C165.8,833.1,52.7,839-3.9,842l-56.5,2.9
	L-66.7,777.8z"/>
<g>
	<g>
		<defs>
			<path id="SVGID_3_" d="M-66.8,777.9l56.5-2.9c56.5-2.9,169.7-8.8,280.6-37c110.9-28.6,219.8-78.5,334-73.5
				c114.1,5.3,233.5,66.6,346.7,60.7c113-5.8,219.8-78.8,328.2-135c108.3-56.2,218.2-95.6,329.2-123.7
				c110.9-28.6,223.1-44.9,279.1-53.9l56-8.5l31.6,335.4l-56.5,2.9c-56.5,2.9-169.7,8.8-282.7,14.6s-226.2,11.7-339.2,17.6
				s-226.2,11.7-339.2,17.6c-113,5.8-226.2,11.7-339.2,17.6c-113,5.8-226.2,11.7-339.2,17.6c-113.3,5.7-226.4,11.7-283,14.6
				l-56.5,2.9L-66.8,777.9z"/>
		</defs>
		<clipPath id="SVGID_4_">
			<use xlink:href="#SVGID_3_"  style="overflow:visible;"/>
		</clipPath>
		<linearGradient id="SVGID_5_" gradientUnits="userSpaceOnUse" x1="970.2315" y1="728.7622" x2="1473.6183" y2="251.8332">
			<stop  offset="0" style="stop-color:#FFE052"/>
			<stop  offset="0" style="stop-color:#FFC331"/>
		</linearGradient>
		<path class="st3" d="M1248.3,304.6L1248.3,304.6c0,18.1-14.6,32.7-32.7,32.7l0,0c-18.1,0-32.8-14.7-32.8-32.8l0,0
			c0-18.1,14.6-32.7,32.7-32.7l0,0C1233.6,271.9,1248.3,286.5,1248.3,304.6z M1316.3,213.5c-191.8,0-179.8,83.2-179.8,83.2l0.2,86
			h183.2v26.2h-255.3c0,0-122.5-13.9-122.5,179.3s107,186.4,107,186.4h63.4V685c0,0-3.4-106.9,105.2-106.9h181.8
			c0,0,102,1.6,102-98.6V313.8C1501.2,313.8,1516.7,213.5,1316.3,213.5z"/>
	</g>
</g>
<path class="st4" d="M-37,792l56-2.8c56-2.8,167.9-8.5,277.9-35.5c109.9-27.4,217.7-75.3,330.8-70.5c113,5.1,231.3,63.9,343.3,58.2
	c112-5.6,217.7-75.6,325-129.5s216.2-91.7,326-118.7c109.9-27.4,220.8-43.1,276.4-51.7l55.5-8.2l31.3,321.6l-56,2.8
	c-56,2.8-167.9,8.5-280,14.1c-112,5.6-224,11.3-336,16.8c-112,5.6-224,11.3-336,16.8c-112,5.6-224,11.3-336,16.8
	c-112,5.6-224,11.3-336,16.8c-112,5.6-224,11.3-280,14.1l-56,2.8L-37,792z"/>
<path class="st5" d="M1316.3,213.5c-191.8,0-179.8,83.2-179.8,83.2l0.2,86h183.2v26.2h-255.3c0,0-122.5-13.9-122.5,179.3
	s107,186.4,107,186.4h63.4V685c0,0-3.4-106.9,105.2-106.9h181.8c0,0,102,1.6,102-98.6V313.8C1501.2,313.8,1516.7,213.5,1316.3,213.5
	z M1248.3,304.6L1248.3,304.6c0,18.1-14.6,32.7-32.7,32.7l0,0c-18.1,0-32.8-14.7-32.8-32.8l0,0c0-18.1,14.6-32.7,32.7-32.7l0,0
	C1233.6,271.9,1248.3,286.5,1248.3,304.6z"/>
<polygon class="st4" points="-154.5,865 2124.6,713.4 2145.5,1157.9 -133.6,1309.5 "/>
<linearGradient id="SVGID_6_" gradientUnits="userSpaceOnUse" x1="1164.3267" y1="927.4951" x2="1669.6589" y2="448.7227">
	<stop  offset="0" style="stop-color:#FFE052"/>
	<stop  offset="0" style="stop-color:#FFC331"/>
</linearGradient>
<path class="st6" d="M1322.3,965c191.9,0,179.9-83.1,179.9-83.1l-0.2-86.1h-183.2v-25.2h255.9c0,0,122.8,13.9,122.8-179.8
	c0-193.8-107.2-186.9-107.2-186.9h-64v89.3c0,0,3.4,107.2-105.4,107.2h-181.5c0,0-102-1.6-102,98.6v165.8
	c0,0-15.5,100.3,184.9,100.3h0V965z M1423.6,907.6c-18.3,0-33.2-14.7-33.2-32.9v0.1c0-18.1,14.7-32.7,32.7-32.7l0,0
	c18.1,0,32.7,14.7,32.7,32.7v0.1c0,18.1-14.6,32.7-32.7,32.7C1423.2,907.6,1423.6,907.6,1423.6,907.6L1423.6,907.6z"/>
</svg>
