<?xml version="1.0" encoding="utf-8"?>
<!-- Generator: Adobe Illustrator 23.0.6, SVG Export Plug-In . SVG Version: 6.00 Build 0)  -->
<svg version="1.1" xmlns="http://www.w3.org/2000/svg" xmlns:xlink="http://www.w3.org/1999/xlink" x="0px" y="0px"
	 viewBox="0 0 1920 1080" style="enable-background:new 0 0 1920 1080;" xml:space="preserve">
<style type="text/css">
	.st0{fill:#152B3E;}
	.st1{fill:#306998;}
</style>
<g id="background">
</g>
<g id="svg3725" xmlns:cc="http://creativecommons.org/ns#" xmlns:dc="http://purl.org/dc/elements/1.1/" xmlns:inkscape="http://www.inkscape.org/namespaces/inkscape" xmlns:rdf="http://www.w3.org/1999/02/22-rdf-syntax-ns#" xmlns:sodipodi="http://sodipodi.sourceforge.net/DTD/sodipodi-0.dtd" xmlns:svg="http://www.w3.org/2000/svg">
	<g>
		<path class="st0" d="M-93.2,566.8l56.1-2.9c56.1-2.9,168.4-8.7,278.5-36.7c110.1-28.4,218.2-77.9,331.5-73
			c113.3,5.3,231.8,66.1,344.1,60.2c112.2-5.8,218.2-78.2,325.8-134c107.5-55.8,216.6-94.9,326.8-122.8
			c110.1-28.4,221.4-44.6,277-53.5l55.6-8.4l31.4,332.9l-56.1,2.9c-56.1,2.9-168.4,8.7-280.6,14.5c-112.2,5.8-224.5,11.6-336.7,17.5
			s-224.5,11.6-336.7,17.5c-112.2,5.8-224.5,11.6-336.7,17.5c-112.2,5.8-224.5,11.6-336.7,17.5c-112.2,5.8-224.5,11.6-280.6,14.5
			l-56.1,2.9L-93.2,566.8z"/>
		<path class="st1" d="M-23.9,737l55.6-2.8c55.6-2.8,166.7-8.4,275.8-35.2c109.1-27.2,216.1-74.7,328.3-70
			c112.2,5.1,229.6,63.4,340.7,57.8c111.2-5.6,216.1-75,322.6-128.5c106.5-53.5,214.6-91,323.6-117.8
			c109.1-27.2,219.2-42.8,274.3-51.3l55.1-8.1l31.1,319.2l-55.6,2.8c-55.6,2.8-166.7,8.4-277.9,14c-111.2,5.6-222.3,11.2-333.5,16.7
			c-111.2,5.6-222.3,11.2-333.5,16.7c-111.2,5.6-222.3,11.2-333.5,16.7c-111.2,5.6-222.3,11.2-333.5,16.7
			c-111.2,5.6-222.3,11.2-277.9,14l-55.6,2.8L-23.9,737z"/>
		<polygon class="st1" points="-136.7,804.5 2125.4,654 2146.2,1095.2 -116,1245.7 		"/>
	</g>
</g>
</svg>
